<svg id="Layer_1" data-name="Layer 1" xmlns="http://www.w3.org/2000/svg" viewBox="0 0 27 27"><title>Behance</title><path d="M516,255.42a1.66,1.66,0,0,0-1.21.43,2.09,2.09,0,0,0-.57,1.2h3.48a1.59,1.59,0,0,0-.57-1.2,1.37,1.37,0,0,0-1.13-.43Zm-7.32-.36a1,1,0,0,0,.43-.92,1.05,1.05,0,0,0-.57-1,3,3,0,0,0-1.21-.15h-2.27v2.28h2.55a1.32,1.32,0,0,0,1.07-.22Zm0,2.21a2,2,0,0,0-1.07-.15h-2.55v2.78h2.55a2.42,2.42,0,0,0,1.07-.22,1.32,1.32,0,0,0,.71-1.28,1.3,1.3,0,0,0-.71-1.13Zm2.7-14.14a13.5,13.5,0,1,0,13.5,13.5,13.49,13.49,0,0,0-13.5-13.5Zm2.34,8.59h4.48V253h-4.48Zm-2.62,8.46a4.51,4.51,0,0,1-.71.85,2.27,2.27,0,0,1-1.21.5,9,9,0,0,1-1.49.14H503V251.23h5a3,3,0,0,1,2.7,1.13,2.89,2.89,0,0,1,.5,1.56,2.11,2.11,0,0,1-1.28,2.14,2.6,2.6,0,0,1,1.21.92,2.73,2.73,0,0,1,.43,1.56,4.55,4.55,0,0,1-.5,1.63Zm8.73-1.78h-5.61A1.79,1.79,0,0,0,515,260a2,2,0,0,0,1.14.28,2,2,0,0,0,1.13-.35,3.11,3.11,0,0,0,.43-.5h2.06a2.61,2.61,0,0,1-.78,1.42,3.65,3.65,0,0,1-2.91,1.14,4.14,4.14,0,0,1-2.7-.93,3.7,3.7,0,0,1-1.21-3.05,4.11,4.11,0,0,1,1.06-3.06,3.76,3.76,0,0,1,2.78-1.06,5.37,5.37,0,0,1,1.84.35,3,3,0,0,1,1.35,1.14,5,5,0,0,1,.64,1.56v1.42Z" transform="translate(-497.87 -243.13)"/></svg>