<svg id="Layer_1" data-name="Layer 1" xmlns="http://www.w3.org/2000/svg" viewBox="0 0 27 27.89"><title>Dribbble</title><path d="M519.54,267.54a60,60,0,0,0-2.66-10,18.62,18.62,0,0,1,8.37.57,13.64,13.64,0,0,1-5.71,9.39Zm-7.54,2.4a13.32,13.32,0,0,1-8.3-2.91c.19-.51,2.91-6,10.58-8.68.07,0,.07,0,.07-.07a55.77,55.77,0,0,1,2.85,10.59,12.82,12.82,0,0,1-5.2,1.07ZM498.5,256v-.38a51.05,51.05,0,0,0,13.88-2c.38.83.76,1.53,1.08,2.35-.19.06-.38.06-.57.13-7,2.28-10.65,8.68-11,9.19A14.79,14.79,0,0,1,498.5,256Zm7.8-12.61a85.52,85.52,0,0,1,5,8.05,51,51,0,0,1-12.48,1.71A13.91,13.91,0,0,1,506.3,243.39Zm5.7-1.33a13,13,0,0,1,8.94,3.55c-.19.38-2.29,3.16-7.1,5-2.22-4.18-4.69-7.6-5-8.17a12.86,12.86,0,0,1,3.17-.38Zm10.39,5.13a15.06,15.06,0,0,1,3.11,8.68,32.56,32.56,0,0,0-9.38-.44,5.47,5.47,0,0,0-.32-.76c-.31-.76-.57-1.33-.88-2C519.92,250.55,522.2,247.57,522.39,247.19Z" transform="translate(-498.5 -242.06)"/></svg>