<svg id="Layer_1" data-name="Layer 1" xmlns="http://www.w3.org/2000/svg" viewBox="0 0 27 27"><title>LinkedIn</title><path d="M512,242.5A13.5,13.5,0,1,0,525.5,256,13.49,13.49,0,0,0,512,242.5Zm-3.3,19.12H506v-8.83h2.74Zm-1.39-9.88a1.36,1.36,0,1,1,.23-2.72,1.35,1.35,0,0,1,1.25,1.35,1.36,1.36,0,0,1-1.38,1.36h-.1Zm11.37,9.88h-2.74v-4.87c0-1.13-.4-1.88-1.39-1.88a1.49,1.49,0,0,0-1.4,1,1.61,1.61,0,0,0,0,.69v5h-2.81v-8.83h2.38l.13,1.22a3.18,3.18,0,0,1,2.73-1.42c1.87,0,3.14,1.2,3.14,3.75Z" transform="translate(-498.5 -242.5)"/></svg>