<svg id="Layer_1" data-name="Layer 1" xmlns="http://www.w3.org/2000/svg" viewBox="0 0 27 27"><title>Twitter</title><path d="M512,242.5A13.5,13.5,0,1,0,525.5,256,13.49,13.49,0,0,0,512,242.5Zm6.49,11c0,.13,0,.26,0,.4a8.67,8.67,0,0,1-13.35,7.3,5.84,5.84,0,0,0,.73.05,6.1,6.1,0,0,0,3.78-1.31,3.06,3.06,0,0,1-2.85-2.12,2.78,2.78,0,0,0,.58.06,3,3,0,0,0,.8-.11,3.06,3.06,0,0,1-2.45-3v0a3,3,0,0,0,1.39.38,3.05,3.05,0,0,1-.95-4.07,8.66,8.66,0,0,0,6.29,3.19,3.27,3.27,0,0,1-.08-.7,3.06,3.06,0,0,1,5.28-2.09,5.86,5.86,0,0,0,1.93-.74,3,3,0,0,1-1.34,1.69,6.11,6.11,0,0,0,1.76-.48A6.21,6.21,0,0,1,518.49,253.47Z" transform="translate(-498.5 -242.5)"/></svg>